<svg data-name="Layer 1" xmlns="http://www.w3.org/2000/svg" width="812.48403" height="497.67988" viewBox="0 0 812.48403 497.67988" xmlns:xlink="http://www.w3.org/1999/xlink"><ellipse cx="431.42522" cy="693.32502" rx="5.51263" ry="98.0657" transform="translate(-456.34934 922.47683) rotate(-89.90804)" fill="#e6e6e6"/><path d="M483.88959,426.72946l12.12534,3.22083a8.72834,8.72834,0,0,0,10.93221-7.63383v0a8.72835,8.72835,0,0,0-10.48525-9.344l-12.91118,2.71134-41.43781-1.32609-12.38165-21.47947-13.72482,13.408,18.1617,23.32487Z" transform="translate(-193.75798 -201.16006)" fill="#a0616a"/><path d="M413.38518,408.02927l28.971-10.2572-10.16788-19.32269a16.42326,16.42326,0,0,0-24.09275-5.7069l0,0a16.42325,16.42325,0,0,0-3.678,23.07634Z" transform="translate(-193.75798 -201.16006)" fill="#575a88"/><path d="M444.39156,436.27472l8.01008,37.68171,43.43948,169.64881L462.968,653.58458,424.81169,518.57,383.72028,654.1716,346.738,643.60524l36.39524-93.3362,4.10915-47.54862s-13.45228-38.8987,13.23254-66.998Z" transform="translate(-193.75798 -201.16006)" fill="#2f2e41"/><path d="M347.30225,692.90189l12.90723,1.06233,1.49927-15.43776c2.93482,11.26808,8.46555,17.113,16.40932,17.91679a10.06294,10.06294,0,0,0,9.609-5.04678h0q.24933-.42728.45485-.87357a6.31928,6.31928,0,0,0-2.52071-7.83942c-8.61125-5.71253-7.6082-23.28724-5.88124-41.7552l-16.11462-.37657-2.1934,13.335C349.94224,664.84535,347.00073,677.61006,347.30225,692.90189Z" transform="translate(-193.75798 -201.16006)" fill="#2f2e41"/><path d="M460.73408,695.04959l12.94177-.48556-.35372-15.50635c4.25854,10.83732,10.44725,15.98047,18.43017,15.83053a10.06292,10.06292,0,0,0,8.93808-6.15741h0q.19656-.454.34736-.92161a6.31928,6.31928,0,0,0-3.43823-7.48258c-9.23142-4.64408-10.33283-22.2129-10.8221-40.755L470.733,641.1208l-.58638,13.50149C460.00706,666.8785,458.60985,679.903,460.73408,695.04959Z" transform="translate(-193.75798 -201.16006)" fill="#2f2e41"/><circle cx="203.9957" cy="130.07146" r="20.82128" fill="#a0616a"/><path d="M389.59049,412.90634l30.525-31.69908L405.44,359.48751l-.587-21.13272H380.19816l2.2899,18.17643C367.021,374.11166,375.78792,393.338,389.59049,412.90634Z" transform="translate(-193.75798 -201.16006)" fill="#a0616a"/><path d="M398.10228,437.8547l49.8967,5.28318c-5.02678-36.06288-15.84123-64.73094-33.16663-70.73592L374.328,381.79428Z" transform="translate(-193.75798 -201.16006)" fill="#575a88"/><path d="M400.54115,460.802l5.71606,11.168a8.72834,8.72834,0,0,0,12.98707,3.02065h0a8.72834,8.72834,0,0,0-.06722-14.04444l-10.65151-7.7843-26.731-31.6908,7.68551-23.57129-19.14732-1.23443-5.19121,29.10238Z" transform="translate(-193.75798 -201.16006)" fill="#a0616a"/><path d="M367.28372,395.88276l27.00293,14.6755,7.563-20.483a16.42326,16.42326,0,0,0-11.87268-21.72714h0a16.42327,16.42327,0,0,0-19.61449,12.70107Z" transform="translate(-193.75798 -201.16006)" fill="#575a88"/><path d="M392.40188,333.83954c3.07851.9433,6.07527-1.7459,7.70846-4.52074s2.86988-6.0657,5.6685-7.6578c3.62638-2.063,8.718-.53223,11.93791-3.18528,3.05243-2.515,2.50925-7.69773-.2045-10.57493s-6.83284-3.92117-10.76107-4.38132c-8.85632-1.03743-18.23094.35107-25.66863,5.26955s-12.5734,13.70429-11.79413,22.58705c.335,3.8185,1.69255,7.46307,2.52905,11.20384s1.11081,7.8294-.61264,11.25327c-2.27275,4.51516-7.58806,6.82477-12.64033,6.98785s-9.973-1.43235-14.81054-2.89886-9.86985-2.83515-14.88555-2.20686a20.78038,20.78038,0,0,0-16.35668,13.20416,23.6084,23.6084,0,0,0,2.701,21.09454c4.28708,6.37651,11.409,10.49416,18.8876,12.2577s15.31836,1.35505,22.89877.09955a104.9966,104.9966,0,0,0,28.83707-9.20691c5.54505-2.70566,11.15078-6.2205,13.79136-11.79683,2.6141-5.52041,1.78907-12.18234-.788-17.72011s-6.72575-10.169-10.87732-14.64924c-2.10745-2.2743-4.28023-4.60916-5.40309-7.49931s-.95289-6.51219,1.24736-8.69684,6.61081-1.90043,7.84778.94275" transform="translate(-193.75798 -201.16006)" fill="#2f2e41"/><ellipse cx="239.28914" cy="657.2765" rx="45.53122" ry="3.47272" transform="translate(-194.81262 -200.77515) rotate(-0.09196)" fill="#e6e6e6"/><ellipse cx="648.26563" cy="690.99875" rx="94.97651" ry="5.33898" transform="matrix(1, -0.00161, 0.00161, 1, -194.86621, -200.11869)" fill="#e6e6e6"/><ellipse cx="911.26563" cy="690.99875" rx="94.97651" ry="5.33898" transform="matrix(1, -0.00161, 0.00161, 1, -194.86588, -199.69657)" fill="#e6e6e6"/><path d="M677.88326,649.88941s-93.13562-46.56781-79.83053-177.40118S606.92279,354.96,606.92279,354.96s22.17515-73.178,62.09041-99.78817c0,0-95.35313-97.57064-170.74863,79.83053,0,0-19.95763,106.44071-4.435,177.40118s51.00284,128.61585,51.00284,128.61585,33.26272,33.26272,70.96047,33.26272S677.88326,649.88941,677.88326,649.88941Z" transform="translate(-193.75798 -201.16006)" fill="#ccc"/><path d="M832.00053,571.16764S778.78018,713.08857,612.46658,686.4784,490.50327,371.59132,490.50327,371.59132,471.919,586.63759,569.15668,649.88041c26.94269,17.52337,62.13359,17.68025,87.87025-1.57077,17.05364-12.75612,31.66671-35.00923,29.72639-73.81573Z" transform="translate(-193.75798 -201.16006)" fill="#e6e6e6"/><path d="M826.81469,301.15467s-75.75345-136.901-239.84953-90.33317C485.24573,254.16006,487.14,365.75,487.14,365.75c-12.2649,185.02011,119.74609,182.0321,150.828-15.22507,5.4574-34.63464-5.54381-54.32911-5.54381-54.32911s-15.5226,46.5678-63.19917,56.54662c-47.75062,9.99432-55.91482-5.90338-54.32911-29.93645q.02379-.3605.04839-.71625a90.65272,90.65272,0,0,1,21.53689-52.8241c27.33456-31.82651,86.91548-78.30286,150.27211,19.16887l4.435,10.96735S769.51725,320.52737,826.81469,301.15467Z" transform="translate(-193.75798 -201.16006)" fill="#e6e6e6"/><path d="M704.47178,297.30457a43.26849,43.26849,0,0,0-43.21988,43.21988V543.91213a45.04666,45.04666,0,0,0,44.99563,44.99562H813.2556a54.28686,54.28686,0,0,0,54.22516-54.22516V351.952a54.709,54.709,0,0,0-54.64744-54.64745Z" transform="translate(-193.75798 -201.16006)" fill="#3f3d56"/><path d="M723.02831,306.17463a22.99583,22.99583,0,0,0-22.9699,22.9699v229.032a22.99513,22.99513,0,0,0,22.9699,22.9699h101.761A46.07069,46.07069,0,0,0,870.807,535.12869V346.7179a40.58946,40.58946,0,0,0-40.54327-40.54327Z" transform="translate(-193.75798 -201.16006)" fill="#748df0"/><path d="M719.27637,307.44784a22.925,22.925,0,0,0-9.23915,18.37042v229.032a22.99514,22.99514,0,0,0,22.9699,22.9699h101.761a45.79058,45.79058,0,0,0,11.43677-1.49707,45.69239,45.69239,0,0,1-22.52434,5.9321h-101.761a22.99514,22.99514,0,0,1-22.9699-22.9699v-229.032A22.99465,22.99465,0,0,1,719.27637,307.44784Z" transform="translate(-193.75798 -201.16006)" opacity="0.2"/><ellipse cx="475.25522" cy="188.17137" rx="22.17515" ry="27.71893" fill="#748df0"/><path d="M684.5358,389.33143c0-13.41-7.61851-24.59365-17.74011-27.16225a17.99387,17.99387,0,0,1,4.435-.55668c12.24695,0,22.17514,12.41018,22.17514,27.71893s-9.92819,27.71894-22.17514,27.71894a17.99434,17.99434,0,0,1-4.435-.55668C676.91729,413.92508,684.5358,402.74141,684.5358,389.33143Z" transform="translate(-193.75798 -201.16006)" opacity="0.2"/><path d="M664.57817,460.2919v57.65538a7.7613,7.7613,0,0,0,15.5226,0V460.2919a7.7613,7.7613,0,0,0-15.52261,0Z" transform="translate(-193.75798 -201.16006)" fill="#748df0"/><path d="M676.7745,517.94728V460.2919a7.74719,7.74719,0,0,0-5.54378-7.39938,7.65046,7.65046,0,0,1,2.21751-.36192,7.77071,7.77071,0,0,1,7.7613,7.7613v57.65538a7.77071,7.77071,0,0,1-7.7613,7.7613,7.65046,7.65046,0,0,1-2.21751-.36191A7.74721,7.74721,0,0,0,676.7745,517.94728Z" transform="translate(-193.75798 -201.16006)" opacity="0.2"/><circle cx="359.94445" cy="366.68131" r="11.08757" fill="#fff"/><path d="M560.355,567.84136a11.09006,11.09006,0,0,0-8.87006-10.86411,11.08758,11.08758,0,1,1,0,21.72823A11.09006,11.09006,0,0,0,560.355,567.84136Z" transform="translate(-193.75798 -201.16006)" opacity="0.3"/><circle cx="354.94445" cy="322.68131" r="11.08757" fill="#fff"/><path d="M555.355,523.84136a11.09006,11.09006,0,0,0-8.87006-10.86411,11.08758,11.08758,0,1,1,0,21.72823A11.09006,11.09006,0,0,0,555.355,523.84136Z" transform="translate(-193.75798 -201.16006)" opacity="0.3"/><circle cx="366.597" cy="120.53718" r="11.08757" fill="#fff"/><path d="M567.00753,321.69723a11.09007,11.09007,0,0,0-8.87006-10.86411,11.08758,11.08758,0,1,1,0,21.72823A11.09007,11.09007,0,0,0,567.00753,321.69723Z" transform="translate(-193.75798 -201.16006)" opacity="0.3"/><ellipse cx="595.98622" cy="248.86826" rx="22.17515" ry="27.71893" fill="#fff" opacity="0.2"/><ellipse cx="595.98622" cy="248.86826" rx="41.43497" ry="51.79371" fill="#fff" opacity="0.2"/><ellipse cx="595.98622" cy="248.86826" rx="62.42613" ry="78.03266" fill="#fff" opacity="0.2"/><path d="M203.48829,509.47006c12.12132,17.13449,15.32317,114.654,16.03676,145.91324.01826.70443.03657,1.37223.04573,2.00345h30.68293c.3751-.66779.72274-1.32649,1.05206-2.00345,18.18656-35.89739,8.0961-78.9395,7.56555-81.11677,1.38133,6.84281-4.86683,26.676-11.92925,45.88718C242.63332,561.084,205.79364,512.45237,203.48829,509.47006Z" transform="translate(-193.75798 -201.16006)" fill="#e6e6e6"/><path d="M991.273,507.53858l1.4953,10.21787a9.03526,9.03526,0,0,1-10.18867,10.25686h0a9.03526,9.03526,0,0,1-7.17943-12.20486l5.07289-13.12984-2.7-88.5594,15.65989-5.94Z" transform="translate(-193.75798 -201.16006)" fill="#ffb8b8"/><circle cx="753.23532" cy="137.89966" r="21.59985" fill="#ffb8b8"/><path d="M972.91312,379.55945l-39.95972-1.62c4.43638-9.71572,6.19624-19.11365,4.32-28.07981h26.45982C962.3418,358.31527,966.18215,368.46844,972.91312,379.55945Z" transform="translate(-193.75798 -201.16006)" fill="#ffb8b8"/><path d="M966.43317,463.79887l-58.8596,4.32,2.13955-33.26063c-6.78344-16.13412-5.69989-27.78482,2.28391-35.50314l.72286-11.23763a17.23694,17.23694,0,0,1,12.7348-15.5417l10.19869-2.73623c13.20552,7.73581,23.73255,7.63032,31.31978-1.08l12.13812,6.21708a16.28374,16.28374,0,0,1,8.76078,16.29147Z" transform="translate(-193.75798 -201.16006)" fill="#575a88"/><path d="M876.25378,467.03885l-16.61422,8.72247a7.1619,7.1619,0,0,1-8.7056-1.60977v0a7.16187,7.16187,0,0,1,3.9413-11.74792l11.6586-2.38471L902.7136,445.979l5.94-42.11971,16.73989,4.32-3.24,49.67966Z" transform="translate(-193.75798 -201.16006)" fill="#ffb8b8"/><path d="M994.513,410.87923,976.1531,421.67916l-1.08-43.19971,3.16557-1.08a16.2743,16.2743,0,0,1,16.2743,16.2743Z" transform="translate(-193.75798 -201.16006)" fill="#575a88"/><path d="M981.82306,675.74744,966.211,673.305c-3.15218-53.34026-9.50162-103.137-20.83772-147.40654-26.21487,34.73733-48.19045,85.93394-66.95955,149.579l-18.35987-4.86,48.05967-209.51858,57.23962-1.08C988.76273,492.0707,981.90942,591.06155,981.82306,675.74744Z" transform="translate(-193.75798 -201.16006)" fill="#2f2e41"/><path d="M870.30623,694.18315l-27.12637-3.80277a5.34855,5.34855,0,0,1-4.41756-6.70407h0a5.34857,5.34857,0,0,1,4.39547-3.88632l4.82027-.69626,15.24135-9.30842,12.60748,3.362,3.73829,11.03233A8.30045,8.30045,0,0,1,870.30623,694.18315Z" transform="translate(-193.75798 -201.16006)" fill="#2f2e41"/><path d="M976.6855,694.18315l-27.12636-3.80277a5.34855,5.34855,0,0,1-4.41756-6.70407h0a5.34857,5.34857,0,0,1,4.39547-3.88632l4.82026-.69626,15.24136-9.30842,12.60748,3.362,3.73829,11.03233A8.30046,8.30046,0,0,1,976.6855,694.18315Z" transform="translate(-193.75798 -201.16006)" fill="#2f2e41"/><path d="M928.63342,418.97918c-4.91019-10.79215-13.38811-14.9731-27.53981-8.63994l1.9081-14.07227a27.34258,27.34258,0,0,1,19.69174-22.64748h0Z" transform="translate(-193.75798 -201.16006)" fill="#575a88"/><path d="M921.50127,327.97693s-3.398-26.44491,24.32755-17.773c0,0,19.80178-3.63334,26.29556,21.13566l6.57538,25.964-3.20451-1.74419-1.494,3.26563-5.1928,1.31508-2.22213-4.41051-1.075,5.356-42.5319,4.24007s19.04919-11.26555,19.35126-31.45613l-3.62847,3.83435Z" transform="translate(-193.75798 -201.16006)" fill="#2f2e41"/><circle cx="774.87221" cy="109.3028" r="10.69466" fill="#2f2e41"/><path d="M957.61028,307.84464a10.68624,10.68624,0,0,1,10.6896-9.99567c-.22084-.028-.4397-.06208-.66488-.07655a10.69466,10.69466,0,1,0-1.37235,21.34525c.22519.01448.4466.00873.66921.00922A10.68624,10.68624,0,0,1,957.61028,307.84464Z" transform="translate(-193.75798 -201.16006)" fill="#2f2e41"/></svg>