<?xml version="1.0" encoding="utf-8"?>
<!-- Generator: Adobe Illustrator 24.0.2, SVG Export Plug-In . SVG Version: 6.00 Build 0)  -->
<svg version="1.1" id="Layer_1" xmlns="http://www.w3.org/2000/svg" xmlns:xlink="http://www.w3.org/1999/xlink" x="0px" y="0px"
	 viewBox="0 0 200 200" style="enable-background:new 0 0 200 200;" xml:space="preserve">
<style type="text/css">
	.st0{fill:#1C94BC;}
</style>
<g>
	<path class="st0" d="M97.6,47.2c0,2-1.7,3.7-3.7,3.7H87c-2,0-3.7-1.7-3.7-3.7V12.9c0-2.1,1.7-3.7,3.7-3.7h6.9c2,0,3.7,1.7,3.7,3.7
		V47.2z"/>
	<g>
		<path class="st0" d="M176.4,194.1H83.5c0-41.6,0-83.3,0-124.9h92.9V92h-69.7v28.7h67.2v21.9h-67.2v28.3h69.7V194.1z"/>
	</g>
	<path class="st0" d="M26.8,83.3c-2,0-3.7-1.7-3.7-3.7v-6.9c0-2,1.7-3.7,3.7-3.7h34.3c2.1,0,3.7,1.7,3.7,3.7v6.9
		c0,2-1.7,3.7-3.7,3.7H26.8z"/>
	<path class="st0" d="M115.8,60.9c-1.4,1.4-3.8,1.4-5.2,0l-4.9-4.9c-1.4-1.4-1.4-3.8,0-5.2l24.3-24.3c1.5-1.5,3.8-1.4,5.3,0l4.9,4.9
		c1.4,1.4,1.4,3.8,0,5.3L115.8,60.9z"/>
	<path class="st0" d="M50.5,126.1c-1.4,1.4-3.8,1.4-5.2,0l-4.9-4.9c-1.4-1.4-1.4-3.8,0-5.2l24.3-24.3c1.5-1.5,3.8-1.4,5.3,0l4.9,4.9
		c1.4,1.4,1.4,3.8,0,5.3L50.5,126.1z"/>
	<path class="st0" d="M40.4,36.3c-1.4-1.4-1.4-3.8,0-5.2l4.9-4.9c1.4-1.4,3.8-1.4,5.2,0l24.3,24.3c1.5,1.5,1.4,3.8,0,5.3l-4.9,4.9
		c-1.4,1.4-3.8,1.4-5.3,0L40.4,36.3z"/>
</g>
</svg>
